<svg width="702" height="270" viewBox="0 0 702 270" fill="none" xmlns="http://www.w3.org/2000/svg">
<g clip-path="url(#clip0_673_157)">
<path d="M43.4923 0.0504085C44.5737 0.0504085 45.6654 0.0401963 46.7876 0.029984C50.4196 0.0197718 54.0415 0.029984 57.6735 0.0401963C60.3057 0.0401963 62.9379 0.029984 65.5701 0.0197718C71.2833 0.0095595 77.0068 0.0095595 82.7201 0.0197718C91.2187 0.0401963 99.7172 0.0197718 108.216 0.0197718C123.397 -0.000652757 138.578 -0.000652757 153.759 0.0197718C167.042 0.029984 180.336 0.029984 193.619 0.0197718C194.497 0.0197718 195.384 0.0197718 196.292 0.0197718C199.873 0.0197718 203.454 0.0197718 207.025 0.0197718C240.591 0.0095595 274.156 0.0197718 307.722 0.0401963C337.533 0.0606208 367.354 0.0606208 397.165 0.0401963C430.68 -0.000652757 464.184 -0.000652757 497.689 0.0095595C501.259 0.0095595 504.83 0.0095595 508.401 0.0095595C509.278 0.0095595 510.156 0.0095595 511.064 0.0095595C524.337 0.0095595 537.62 0.0095595 550.893 -0.000652757C565.993 -0.010865 581.092 -0.000652757 596.192 0.0095595C604.639 0.0197718 613.087 0.0197718 621.534 0.0095595C627.839 -0.000652757 634.155 0.0095595 640.46 0.029984C643.01 0.029984 645.561 0.029984 648.111 0.029984C651.58 0.0197718 655.049 0.029984 658.518 0.0504085C659.507 0.0504085 660.497 0.029984 661.517 0.0197718C672.78 0.142319 682.085 4.01276 690.226 11.7945C701.643 23.7633 702.051 36.5082 701.979 52.1636C701.979 54.1652 701.99 56.177 702 58.1786C702.02 63.6013 702.01 69.024 702 74.4365C701.99 80.1247 702 85.8129 702 91.5012C702 101.05 702 110.598 701.979 120.147C701.959 131.166 701.969 142.185 701.979 153.214C702 162.701 702 172.178 701.99 181.665C701.99 187.323 701.99 192.97 701.99 198.628C702 203.948 701.99 209.259 701.969 214.579C701.969 216.52 701.969 218.47 701.969 220.41C702.03 235.096 700.816 246.779 690.206 257.91C681.055 266.652 670.964 269.777 658.497 269.654C657.416 269.654 656.324 269.664 655.202 269.674C651.57 269.685 647.948 269.674 644.316 269.664C641.684 269.664 639.052 269.674 636.419 269.685C630.706 269.695 624.983 269.695 619.269 269.685C610.771 269.664 602.272 269.685 593.774 269.685C578.593 269.705 563.412 269.705 548.231 269.685C534.947 269.674 521.654 269.674 508.37 269.685C507.493 269.685 506.605 269.685 505.697 269.685C502.116 269.685 498.535 269.685 494.965 269.685C461.399 269.695 427.833 269.685 394.268 269.664C364.457 269.644 334.635 269.644 304.824 269.664C271.32 269.685 237.816 269.695 204.311 269.685C200.74 269.685 197.17 269.685 193.599 269.685C192.721 269.685 191.844 269.685 190.936 269.685C177.663 269.685 164.379 269.685 151.106 269.695C136.007 269.705 120.907 269.695 105.808 269.685C97.3604 269.674 88.9129 269.674 80.4654 269.685C74.1604 269.695 67.8452 269.685 61.5402 269.664C58.9896 269.664 56.439 269.664 53.8884 269.664C50.4196 269.674 46.9509 269.664 43.4821 269.644C42.4925 269.644 41.5028 269.664 40.4826 269.674C29.2193 269.552 19.9148 265.681 11.7733 257.9C0.367152 245.941 -0.0409399 233.206 0.0304762 217.551C0.0304762 215.549 0.0202739 213.538 0.0100716 211.536C-0.010333 206.113 -0.000130683 200.691 0.0100716 195.278C0.0202739 189.59 0.0100716 183.902 0.0100716 178.213C0.0100716 168.665 0.0100716 159.117 0.0304762 149.568C0.0508808 138.549 0.0406785 127.53 0.0304762 116.501C-0.000130681 107.014 -0.000130683 97.5264 0.0100716 88.0494C0.0100716 82.3918 0.0100716 76.7445 0.0100716 71.0869C-0.000130683 65.7663 0.0100716 60.4559 0.0304762 55.1353C0.0304762 53.195 0.0304762 51.2445 0.0304762 49.3041C-0.0307376 34.6189 1.18334 22.9361 11.7937 11.8047C20.935 3.05281 31.0251 -0.0721386 43.4923 0.0504085Z" fill="#001436"/>
<path d="M661.252 0.509277C672.521 0.601094 681.735 4.33975 689.898 12.1333C701.163 23.9487 701.583 36.5091 701.511 52.1626V52.1646C701.511 53.1659 701.514 54.1697 701.518 55.1733L701.532 58.1821C701.552 63.6028 701.542 69.0238 701.532 74.436C701.522 80.1246 701.532 85.8146 701.532 91.5015C701.532 101.05 701.532 110.598 701.511 120.146C701.501 125.656 701.499 131.166 701.5 136.677L701.511 153.215C701.532 162.702 701.532 172.179 701.522 181.666V198.629C701.532 203.949 701.522 209.259 701.501 214.579V220.414C701.563 235.066 700.347 246.583 689.878 257.572C680.686 266.356 670.647 269.298 658.084 269.156H658.08C656.95 269.156 655.813 269.159 654.669 269.166C650.927 269.166 647.185 269.146 643.441 269.125H635.348C629.564 269.125 623.77 269.116 617.986 269.095C609.619 269.065 601.252 269.054 592.876 269.043L582.692 269.037C572.508 269.024 562.325 268.995 552.14 268.972C545.549 268.952 538.955 268.934 532.362 268.92L512.584 268.89H510.115C506.035 268.89 501.955 268.881 497.864 268.871H497.863C464.714 268.831 431.566 268.76 398.417 268.67C400.764 267.553 403.132 266.566 405.599 265.629L405.607 265.625C417.327 260.937 423.866 253.824 429.284 242.658L429.291 242.644L429.297 242.629C431.508 237.175 431.689 232.017 431.689 226.273C431.689 225.456 431.689 224.652 431.699 223.818V223.814C431.704 222.45 431.707 221.089 431.709 219.728C431.712 218.367 431.714 217.007 431.719 215.644V215.642C431.719 213.693 431.73 211.733 431.74 209.783V209.782C431.76 203.368 431.771 196.944 431.781 190.531V190.53C431.781 188.314 431.78 186.109 431.791 183.894V183.893C431.811 173.497 431.821 163.11 431.832 152.714L431.838 143.729C431.852 134.743 431.883 125.753 431.914 116.769C431.944 107.496 431.954 98.2219 431.964 88.9595L431.973 80.6587C431.98 77.893 431.99 75.1285 432.005 72.3667V72.3657C432.026 67.1574 432.035 61.9487 432.025 56.7397C432.025 54.8297 432.025 52.9325 432.045 51.0259V51.0239C432.137 37.1471 431.163 25.3608 421.217 14.5356L421.211 14.5288L421.206 14.5229C414.353 7.57231 407.228 3.601 397.878 1.21143V1.0376C432.244 0.94626 466.599 0.876122 500.964 0.835449L500.963 0.834473C503.004 0.834473 505.043 0.83342 507.081 0.82959L513.198 0.814941H515.656C528.786 0.794517 541.917 0.763994 555.047 0.723145C568.524 0.682297 582.012 0.662068 595.489 0.651855L595.488 0.650879C603.803 0.650879 612.119 0.631185 620.435 0.590332L620.434 0.589355C626.137 0.568933 631.849 0.559614 637.551 0.569824H637.552C640.837 0.569824 644.134 0.56975 647.42 0.549316C650.989 0.528903 654.568 0.528904 658.137 0.549316V0.550293L658.147 0.549316C659.172 0.535727 660.207 0.522867 661.252 0.509277Z" fill="#2A7AFE" stroke="black" stroke-width="0.956403"/>
<path d="M167.879 68.9838C166.869 74.8558 164.584 80.0845 162.329 85.5787C161.911 86.6203 161.492 87.662 161.064 88.7343C160.662 89.7215 160.254 90.7189 159.839 91.7265C159.472 92.6252 159.105 93.534 158.727 94.4634C158.02 95.859 156.986 96.8973 155.626 97.5781C153.616 96.7407 151.647 95.8114 149.698 94.831C140.649 90.5214 131.069 86.7633 120.938 86.3446C119.795 86.2936 118.653 86.2425 117.469 86.1812C107.165 85.9259 97.0239 86.4672 88.2907 92.472C84.9954 97.3636 84.6893 101.06 85.2301 106.769C87.1583 111.773 90.7801 113.724 95.4324 115.96C97.8401 116.743 100.312 117.4 102.849 117.931C103.533 118.095 104.227 118.248 104.931 118.411C106.39 118.748 107.849 119.085 109.307 119.412C113.103 120.27 116.888 121.168 120.673 122.077C121.414 122.254 122.159 122.431 122.907 122.608C140.598 126.877 159.982 132.361 170.276 148.578C175.847 158.678 176.826 170.381 173.847 181.574C169.277 194.554 160.809 203.694 148.903 210.311C122.193 222.842 90.0557 220.36 62.8666 210.546C56.2657 208.024 50.277 204.633 44.4106 200.722C45.4105 194.727 47.961 189.611 50.4708 184.127C50.9401 183.085 51.3992 182.044 51.8787 180.971C52.3276 179.981 52.7765 179 53.2356 177.979C53.6437 177.081 54.0518 176.172 54.4803 175.242C55.2489 173.847 56.3133 172.808 57.6736 172.128C59.0067 172.836 60.4963 173.728 62.1422 174.803C80.1493 185.935 102.309 189.958 123.142 186.18C128.427 184.76 132.242 182.074 136.242 178.449C137.792 175.059 137.945 171.658 137.262 168.043C135.262 163.743 133.375 162.089 129.039 160.261C128.141 159.866 127.236 159.471 126.325 159.076C118.5 156.186 110.511 154.185 102.39 152.346C84.5057 148.159 65.4376 143.39 53.6131 128.225C46.951 117.472 45.7778 105.482 48.1549 93.1358C52.0522 80.2785 60.163 70.4339 71.9263 64.0717C78.8434 60.5178 85.7708 58.2201 93.4021 56.7393C94.1673 56.5657 94.9324 56.3921 95.718 56.2082C118.949 52.1131 147.913 55.667 167.879 68.994V68.9838Z" fill="#FCFCFC"/>
<path d="M196.445 48.5591H232.153C232.49 78.8895 232.827 109.22 233.174 140.469C239.465 134.716 245.634 128.868 251.681 122.925C253.588 121.046 255.557 119.299 257.588 117.553C261.465 114.214 265.035 110.629 268.627 106.983C271.412 104.226 274.33 101.663 277.319 99.12C278.502 98.1396 279.546 97.0911 280.451 95.9746C282.583 94.1364 283.634 94.1466 286.419 94.167C287.276 94.167 288.144 94.167 289.021 94.167C289.939 94.1875 290.868 94.1977 291.816 94.2181C292.765 94.2181 293.714 94.2181 294.683 94.2283C297.713 94.2487 300.733 94.2794 303.753 94.3202C305.804 94.3406 307.854 94.3508 309.905 94.3611C314.935 94.3917 319.965 94.4428 324.984 94.5142C320.24 100.223 315.169 105.482 309.895 110.711C309.048 111.548 308.201 112.396 307.334 113.264C304.651 115.929 301.968 118.595 299.284 121.26C295.734 124.783 292.194 128.307 288.654 131.84C287.837 132.647 287.031 133.454 286.195 134.281C285.44 135.036 284.685 135.792 283.899 136.568C283.236 137.232 282.573 137.886 281.89 138.56C280.645 139.826 279.499 141.229 278.451 142.767C277.982 143.359 277.513 143.952 277.033 144.565H274.993C281.696 153.653 288.521 162.589 295.683 171.321C299.937 176.519 304.039 181.809 308.109 187.15C309.987 189.601 311.905 192.021 313.843 194.421C314.384 195.085 314.925 195.759 315.476 196.443C316.506 197.719 317.536 198.986 318.577 200.252C322.393 204.97 325.77 209.923 329.065 215.019C323.117 215.244 317.159 215.417 311.211 215.519C309.191 215.57 307.161 215.632 305.141 215.703C293.979 216.132 286.671 215.288 283.216 213.17C281.124 210.832 279.594 208.544 278.053 205.818C277.094 204.592 276.125 203.377 275.125 202.192C274.248 201.069 273.381 199.935 272.503 198.802C271.544 197.566 270.585 196.33 269.616 195.095C269.147 194.496 268.674 193.886 268.198 193.267C265.464 189.795 262.648 186.384 259.842 182.973C256.353 178.704 252.915 174.395 249.487 170.085C242.631 173.21 236.346 177.346 233.163 184.382C231.286 194.513 231.959 204.756 232.143 215.019H196.435V48.5591H196.445Z" fill="#FCFCFC"/>
<path d="M468.847 58.7715H587.193V87.3658H505.575V128.215H578.011V157.83H505.575V215.019H468.847V58.7715Z" fill="#FEFEFF"/>
<path d="M343.359 94.5142H379.067V215.019H343.359V94.5142Z" fill="#FAFAFB"/>
<path d="M609.638 94.5142H644.326V213.998H609.638V94.5142Z" fill="white"/>
<path d="M371.66 39.2459C376.7 41.8296 381.117 45.1894 383.147 50.6019C384.127 57.5973 383.8 63.9391 380.087 70.0052C374.822 75.3973 368.915 78.2159 361.335 78.6244C355.04 78.3486 348.929 76.6738 344.45 72.0783C339.288 65.2872 338.482 60.181 339.278 51.6334C341.889 46.0983 346.287 41.9624 351.796 39.2663C358.04 37.2341 365.406 37.2545 371.66 39.2561V39.2459Z" fill="#FAFAFB"/>
<path d="M638.715 40.4508C643.153 43.0549 646.632 45.6386 648.407 50.6018C649.377 57.6074 649.06 63.9288 645.347 70.0051C640.031 75.4482 634.114 78.2566 626.472 78.563C619.565 78.2974 613.536 75.9588 608.618 71.0263C604.711 65.8487 603.874 61.8251 604.15 55.3403C605.027 49.121 607.894 45.8429 612.761 42.0439C620.29 36.6314 630.38 36.6212 638.715 40.4508Z" fill="#FBFCFF"/>
</g>
<defs>
<clipPath id="clip0_673_157">
<rect width="702" height="269.706" fill="white"/>
</clipPath>
</defs>
</svg>
